<?xml version="1.0" encoding="UTF-8"?>
<svg width="300px" height="375px" viewBox="0 0 300 375" version="1.1" xmlns="http://www.w3.org/2000/svg" xmlns:xlink="http://www.w3.org/1999/xlink">
    <title>Group 9</title>
    <g id="Page-1" stroke="none" stroke-width="1" fill="none" fill-rule="evenodd">
        <g id="Group-2" transform="translate(1.000000, 1.000000)">
            <rect id="Rectangle" stroke="#979797" fill="#F8F8F8" x="0" y="0" width="300" height="375"></rect>
            <path d="M203.919899,45.6870971 C249.695398,90.1404969 225.428125,179.091054 217.093501,202.953859 C208.758878,226.816665 193.151949,229.912778 193.151949,243.863965 C193.151949,257.815152 190.746298,264.705365 203.919899,272.863479 C214.445832,279.381952 269.078797,278.996812 300.003591,288.289039 L300.002926,375 L0.00292633874,375 L-0.000226637782,288.596299 C30.7310762,278.987598 86.4453124,279.452988 97.0859532,272.863479 C110.259555,264.705365 107.853904,257.815152 107.853904,243.863965 C107.853904,229.912778 92.2469751,226.816665 83.9123515,202.953859 C75.577728,179.091054 51.3104549,90.1404969 97.0859532,45.6870971 C114.126192,29.1390181 131.931987,21.2614481 150.503338,22.0543871 C169.074505,21.2617311 186.879966,29.1393153 203.919899,45.6870971 Z" id="Combined-Shape" fill="#BBBBBB"></path>
        </g>
    </g>
</svg>